<?xml version="1.0" encoding="UTF-8"?> <svg xmlns="http://www.w3.org/2000/svg" xmlns:xlink="http://www.w3.org/1999/xlink" width="47" height="32" viewBox="0 0 47 32"><defs><path id="cc4ilskfqa" d="M0 0h45.81v32H0z"></path></defs><g fill="none" fill-rule="evenodd" opacity=".5"><g transform="translate(.977)"><mask id="boyb9qtypb" fill="#fff"><use xlink:href="#cc4ilskfqa"></use></mask><path d="M19.021 3.503a8.033 8.033 0 0 1 5.811-2.492c3.032 0 5.659 1.684 7.074 4.193a9.768 9.768 0 0 1 3.991-.85c5.457 0 9.887 4.463 9.887 9.97 0 5.508-4.43 9.97-9.887 9.97a9.981 9.981 0 0 1-1.953-.193c-1.238 2.206-3.605 3.705-6.3 3.705a7.192 7.192 0 0 1-3.166-.727c-1.254 2.947-4.177 5.019-7.579 5.019a8.232 8.232 0 0 1-7.73-5.39 7.596 7.596 0 0 1-1.573.164c-4.228 0-7.647-3.47-7.647-7.73a7.769 7.769 0 0 1 3.824-6.704 8.859 8.859 0 0 1-.733-3.537C3.04 3.983 7.032.01 11.95.01a8.87 8.87 0 0 1 7.073 3.503" fill="#000" fill-rule="nonzero" mask="url(#boyb9qtypb)"></path></g><path d="M7.603 16.64c-.029.075.01.09.02.104.086.062.173.108.26.158.469.248.91.32 1.372.32.94 0 1.524-.5 1.524-1.305v-.016c0-.744-.66-1.015-1.277-1.21l-.08-.025c-.467-.151-.87-.283-.87-.59v-.015c0-.263.236-.457.6-.457.404 0 .886.135 1.194.305 0 0 .091.059.125-.03l.192-.514c.017-.05-.014-.087-.046-.106a2.662 2.662 0 0 0-1.348-.362h-.093c-.861 0-1.462.52-1.462 1.265v.016c0 .785.663 1.04 1.283 1.218l.1.03c.451.14.842.26.842.577v.015c0 .292-.254.509-.662.509a2.22 2.22 0 0 1-1.21-.349c-.067-.038-.105-.066-.156-.097-.027-.016-.094-.046-.123.042l-.186.516m13.76 0c-.029.075.01.09.02.104.086.062.174.107.261.158.468.247.91.32 1.371.32.94 0 1.524-.5 1.524-1.305V15.9c0-.745-.658-1.016-1.276-1.21l-.08-.026c-.467-.15-.87-.283-.87-.59v-.015c0-.262.236-.456.6-.456.404 0 .884.134 1.194.305 0 0 .091.059.124-.03.018-.047.175-.468.19-.515.019-.05-.013-.086-.045-.106a2.662 2.662 0 0 0-1.347-.362h-.094c-.86 0-1.462.521-1.462 1.266v.016c0 .784.664 1.04 1.283 1.217l.1.031c.453.139.842.26.842.576v.016c0 .291-.254.509-.662.509-.159 0-.665-.003-1.21-.349-.067-.039-.106-.065-.156-.098-.017-.01-.096-.041-.123.043l-.186.515m9.398-1.576c0 .455-.085.813-.25 1.068-.167.25-.417.374-.765.374-.349 0-.598-.122-.762-.373-.164-.252-.247-.613-.247-1.067 0-.455.083-.812.247-1.063.163-.25.411-.369.762-.369.35 0 .6.12.764.369.167.25.251.608.251 1.063m.785-.844a1.895 1.895 0 0 0-.357-.682 1.71 1.71 0 0 0-.603-.458 1.975 1.975 0 0 0-.842-.169c-.32 0-.601.057-.842.169-.24.111-.443.266-.603.458-.16.192-.28.42-.357.682-.077.26-.116.542-.116.844 0 .301.04.584.116.843.077.261.197.49.357.682.16.192.364.346.603.455.24.11.524.165.842.165.318 0 .601-.056.84-.165.24-.109.443-.263.603-.455a1.9 1.9 0 0 0 .357-.682 2.98 2.98 0 0 0 .116-.843c0-.3-.04-.585-.116-.844m6.45 2.156c-.025-.077-.1-.048-.1-.048a1.8 1.8 0 0 1-.365.104c-.13.02-.276.031-.43.031-.378 0-.681-.113-.897-.337-.217-.224-.339-.584-.337-1.073.001-.444.109-.778.302-1.034.19-.252.483-.384.87-.384.324 0 .571.038.83.12 0 0 .062.026.092-.055.069-.19.12-.327.193-.536.021-.06-.03-.085-.049-.092a3.055 3.055 0 0 0-.523-.132 3.952 3.952 0 0 0-.59-.04c-.33 0-.623.057-.874.168a1.809 1.809 0 0 0-1.014 1.14c-.085.26-.128.545-.128.846 0 .65.175 1.177.522 1.563.347.387.87.583 1.55.583.402 0 .815-.082 1.111-.199 0 0 .057-.027.032-.093l-.193-.532m1.372-1.752c.038-.253.107-.463.216-.627.163-.249.41-.385.76-.385.348 0 .579.137.744.385.11.165.157.383.175.627h-1.903.008zm2.644-.556a1.664 1.664 0 0 0-.34-.621c-.172-.184-.338-.314-.505-.384-.24-.103-.5-.155-.761-.155-.332 0-.634.056-.878.17a1.75 1.75 0 0 0-.611.467 1.919 1.919 0 0 0-.36.69 2.985 2.985 0 0 0-.117.848c0 .306.04.59.12.848.08.26.21.487.386.676.175.19.4.338.669.443.267.103.592.157.965.156.768-.003 1.172-.174 1.337-.266.03-.017.057-.045.022-.127l-.173-.487c-.027-.073-.1-.046-.1-.046-.19.07-.46.198-1.091.197-.413 0-.718-.123-.91-.313-.195-.196-.293-.48-.308-.885l2.66.002s.071 0 .078-.069c.003-.028.091-.545-.08-1.143h-.003zm-23.915.556c.037-.253.107-.463.215-.627.163-.249.411-.385.76-.385.348 0 .58.137.744.385.11.165.157.383.175.627h-1.903.009zm2.644-.556a1.662 1.662 0 0 0-.34-.621c-.172-.184-.339-.314-.506-.384-.24-.103-.5-.155-.761-.155-.332 0-.633.056-.877.17a1.75 1.75 0 0 0-.612.467 1.924 1.924 0 0 0-.36.69 2.991 2.991 0 0 0-.116.848c0 .306.04.59.12.848.08.26.21.487.384.676.175.19.4.338.669.443.268.103.591.157.965.156.768-.003 1.172-.174 1.337-.266.03-.017.057-.045.023-.127l-.174-.487c-.027-.073-.1-.046-.1-.046-.19.07-.46.198-1.092.197-.41 0-.717-.123-.909-.313-.195-.196-.293-.48-.308-.885l2.66.002s.07 0 .078-.069c.003-.028.091-.545-.08-1.143h-.001zm-8.388 2.29a.519.519 0 0 1-.153-.157.635.635 0 0 1-.08-.345c0-.233.078-.401.238-.514-.002 0 .229-.199.771-.192.242.004.483.025.721.062v1.207s-.336.073-.717.096c-.54.032-.78-.156-.778-.155l-.002-.001zm1.058-1.869a5.906 5.906 0 0 0-.414-.012c-.228 0-.448.029-.654.084a1.703 1.703 0 0 0-.554.258c-.16.114-.292.264-.385.438-.095.175-.143.38-.143.613 0 .236.041.44.122.606.08.166.199.309.347.416.148.108.33.187.54.234.21.048.445.072.705.072.273 0 .544-.023.806-.067.224-.039.447-.082.67-.13.088-.02.186-.047.186-.047.066-.017.06-.087.06-.087V14.44c0-.533-.143-.928-.424-1.173-.28-.244-.688-.367-1.219-.367-.199 0-.52.027-.712.066 0 0-.58.112-.819.3 0 0-.052.032-.024.105l.189.505c.023.066.087.044.087.044s.02-.008.044-.022c.51-.278 1.157-.27 1.157-.27.286 0 .508.058.657.172.145.111.219.28.219.633v.113c-.228-.033-.438-.053-.438-.053l-.003-.006zm21.39-1.369a.072.072 0 0 0-.04-.096 2.339 2.339 0 0 0-.445-.075c-.333-.021-.519.035-.685.11-.165.074-.347.194-.448.332v-.324c0-.044-.032-.08-.077-.08h-.68c-.045 0-.077.036-.077.08v3.958c0 .045.037.08.081.08h.697a.08.08 0 0 0 .08-.08v-1.987c0-.266.03-.53.089-.697a1 1 0 0 1 .232-.391.807.807 0 0 1 .328-.197c.116-.034.237-.05.357-.05.14 0 .292.035.292.035.051.006.08-.025.097-.071.045-.122.175-.486.2-.558" fill="#FFFFFE" fill-rule="nonzero"></path><path d="M28.285 11.292a2.058 2.058 0 0 0-.624-.09c-.48 0-.859.136-1.125.404-.264.266-.443.671-.534 1.205l-.032.18h-.603s-.074-.003-.09.077l-.098.553c-.007.052.016.085.086.085h.587l-.595 3.325c-.047.268-.1.488-.16.655a1.343 1.343 0 0 1-.185.378.492.492 0 0 1-.243.188.985.985 0 0 1-.313.045c-.064 0-.15-.011-.213-.024-.063-.012-.096-.026-.143-.046 0 0-.069-.026-.096.043-.022.056-.178.486-.197.54-.019.052.008.094.041.106.078.027.136.045.243.07.148.035.272.037.389.037.244 0 .467-.034.652-.1.186-.068.348-.185.491-.343.155-.171.252-.35.345-.594.092-.243.17-.543.234-.893l.598-3.387h.875s.074.003.09-.077l.098-.553c.007-.053-.015-.086-.086-.085h-.85c.005-.02.043-.318.14-.6a.771.771 0 0 1 .187-.283.551.551 0 0 1 .222-.138.923.923 0 0 1 .286-.041c.08 0 .158.01.218.022.082.017.114.026.136.033.086.026.098 0 .115-.041l.203-.558c.021-.06-.03-.085-.049-.093m-11.87 5.746c0 .045-.03.081-.075.081h-.705c-.044 0-.076-.036-.076-.08v-5.671c0-.044.032-.08.076-.08h.705c.044 0 .076.036.076.08v5.67" fill="#FFFFFE" fill-rule="nonzero"></path></g></svg> 