<?xml version="1.0" encoding="UTF-8"?> <svg xmlns="http://www.w3.org/2000/svg" width="141" height="32" viewBox="0 0 141 32"><g fill-rule="nonzero" fill="none" opacity=".5"><path d="M89.632 20.03a4.417 4.417 0 0 1-4.411-4.412 4.417 4.417 0 0 1 4.411-4.41 4.417 4.417 0 0 1 4.411 4.41 4.417 4.417 0 0 1-4.41 4.412m0-11.446a7.032 7.032 0 0 0-7.035 7.034 7.032 7.032 0 0 0 7.034 7.035 7.032 7.032 0 0 0 7.034-7.035c0-3.862-3.147-7.034-7.034-7.034M81.024 20.387h.572v2.647h-.572c-3.028 0-5.508-2.48-5.508-5.508V5.436h2.647v3.53h3.41v2.647h-3.41v5.937c0 1.55 1.287 2.837 2.861 2.837M113.263 20.03a4.417 4.417 0 0 1-4.412-4.412 4.417 4.417 0 0 1 4.412-4.41 4.417 4.417 0 0 1 4.41 4.41c-.023 2.457-2.002 4.412-4.41 4.412m0-11.446a7.032 7.032 0 0 0-7.035 7.034 7.032 7.032 0 0 0 7.035 7.035 7.032 7.032 0 0 0 7.034-7.035c0-3.862-3.148-7.034-7.034-7.034M133.507 20.03a4.417 4.417 0 0 1-4.411-4.412 4.417 4.417 0 0 1 4.41-4.41 4.417 4.417 0 0 1 4.412 4.41 4.417 4.417 0 0 1-4.411 4.412m0-11.446a7.032 7.032 0 0 0-7.034 7.034 7.032 7.032 0 0 0 7.034 7.035c1.717 0 3.29-.62 4.507-1.646v1.383h2.527v-6.772c0-3.862-3.147-7.034-7.034-7.034M103.94 8.584h1.263v2.647h-1.264a2.87 2.87 0 0 0-2.861 2.861v8.394H98.43v-8.394c0-3.028 2.48-5.508 5.508-5.508M122.061 5.079h2.647v17.359h-2.647zM57.918 14.45v8.37h-2.647v-8.37a2.87 2.87 0 0 0-2.86-2.861 2.87 2.87 0 0 0-2.862 2.861v8.37h-2.647v-8.37a2.87 2.87 0 0 0-2.862-2.861 2.87 2.87 0 0 0-2.86 2.861v8.37h-2.648v-8.37c0-3.028 2.48-5.508 5.485-5.508 1.693 0 3.171.74 4.196 1.931a5.477 5.477 0 0 1 4.197-1.931c3.028 0 5.508 2.48 5.508 5.508M66.74 20.387a4.417 4.417 0 0 1-4.41-4.41 4.417 4.417 0 0 1 4.41-4.412 4.417 4.417 0 0 1 4.412 4.411c0 2.432-2.003 4.411-4.411 4.411m0-11.445c-3.91 0-7.058 3.147-7.058 7.034a7.032 7.032 0 0 0 7.034 7.034 7.032 7.032 0 0 0 7.034-7.034c.024-3.863-3.123-7.034-7.01-7.034M16.857 0c-8.846 0-16 7.153-16 16 0 8.846 7.154 16 16 16 8.847 0 16-7.154 16-16 0-8.799-7.058-16-16-16" fill="#000"></path><path d="m21.626 3.934-4.745 15.738-.024.024-.048-.024-4.745-15.738-6.128 20.15h1.145s.763-3.506 2.026-5.604c.692-1.145 1.741-2.075 3.148-2.05 1.002.023 1.86.571 2.933 2.074.238.334.525.882.81 1.407.454.882.835 1.788.835 1.788s1.002-2.29 1.646-3.195c1.073-1.503 1.931-2.05 2.933-2.075 1.406-.024 2.48.906 3.147 2.05 1.264 2.1 2.027 5.604 2.027 5.604h1.144L21.626 3.934z" fill="#FFF"></path></g></svg> 