<?xml version="1.0" encoding="UTF-8"?><svg id="Layer_2" xmlns="http://www.w3.org/2000/svg" xmlns:xlink="http://www.w3.org/1999/xlink" viewBox="0 0 647.12 244.08"><defs><linearGradient id="linear-gradient" x1="283.08" y1="64.21" x2="564.81" y2="64.21" gradientUnits="userSpaceOnUse"><stop offset="0" stop-color="#fff"/><stop offset="1" stop-color="#2ab0e7"/></linearGradient></defs><g id="Layer_1-2"><text transform="translate(200.43 181.04)" style="fill:#2ab0e7; font-family:SofachromeRg-Italic, Sofachrome; font-size:58.72px;"><tspan x="0" y="0">P</tspan><tspan x="68.53" y="0" style="letter-spacing:-.05em;">R</tspan><tspan x="139.76" y="0" style="letter-spacing:0em;">O-BUS</tspan></text><g><path d="M518.54,93.64c-11.84-.41-25.44,.08-39.01-.42-23.8-.88-47.6-.69-71.39-1.07-12.1-.19-24.21-.14-36.31-.22-14.39-.09-28.78-.23-43.16-.21-13.24,.02-26.45-1.18-39.7-.86-4.17,.1-4.43-.36-4.5-4.52-.15-9.01-.14-18.03-.42-27.04-.2-6.32-.93-12.62-.66-18.96,.06-1.48,.16-2.96,.3-4.43,.09-.9,.38-1.16,1.25-1.12,5.41,.29,10.83,.5,16.23,.84,5.57,.34,11.14,.99,16.71,1.16,6.68,.19,13.31,.79,19.96,1.32,5.06,.41,10.14,.46,15.21,.79,5.17,.34,10.34,.83,15.5,1.23,3.86,.3,7.74,.48,11.6,.82,8.75,.78,17.56,.65,26.3,1.46,7.51,.7,15.06,.59,22.53,1.39,9.42,1.01,18.91,.9,28.31,2.01,7.44,.88,14.93,.65,22.36,1.34,7.67,.71,15.35,1.03,23.03,1.58,7.9,.56,15.79,1.37,23.72,1.48,5.3,.07,10.55,.67,15.66,2.28,4.61,1.45,8.12,4.17,10.71,8.25,3.89,6.13,6.15,12.91,8.19,19.79,1.16,3.92,2.22,7.87,3.45,11.77,.42,1.33-.09,1.37-1.12,1.36-10.56-.02-21.13-.02-31.69-.02-3.77,0-7.54,0-13.05,0Z" style="fill:#2ab0e7; stroke:url(#linear-gradient); stroke-miterlimit:10; stroke-width:.5px;"/><path d="M63.31,152.32c-4.11-.11-7.94-.01-11.75-.43-2.81-.31-4.65-1.94-6.02-4.26-2.12-3.58-2.83-7.53-3.04-11.6-.38-7.48,1.39-14.68,2.79-21.94,1.76-9.15,3.38-18.32,5.07-27.48,2-10.83,3.98-21.67,6.03-32.5,1.22-6.43,2.93-12.72,5.3-18.83,3.25-8.38,9.7-12.12,18.28-12.84,8.96-.75,17.88-.04,26.81,.63,6.25,.47,12.53,.7,18.78,1.1,4.89,.31,9.77,.72,14.65,1.24,3.06,.33,6.15,.36,9.23,.44,2.97,.07,5.9,.43,8.8,1.03,1,.21,1.41,.59,1.37,1.7-.45,14.09-.34,28.18-.7,42.27-.28,11-.87,21.99-.98,32.99,0,.82-.31,1.39-.92,1.91-1.19,.99-2.42,1.93-3.78,2.64-9.43,4.88-17.67,11.47-26.03,17.91-7.99,6.16-15.82,12.59-24.81,17.28-8.9,4.65-18.33,7.64-28.43,8.38-3.65,.27-7.3,.18-10.66,.37Z" style="fill:#2ab0e7;"/><path d="M228.53,118.98c3.2-3.56,7.14-6.01,11.7-7.48,4.48-1.45,9.11-1.97,13.79-2.08,20.44-.49,40.89-.15,61.33-.15,83.38,.02,166.76,.1,250.14,.13,3.24,0,6.5,.27,9.74-.3,3.76-.66,4.06-.91,2.91-4.45-5.07-15.63-9.81-31.37-15.44-46.81-1.37-3.77-3.14-7.33-6.33-9.96-3.57-2.93-7.77-4.16-12.27-4.56-7.61-.68-15.21-1.36-22.82-2-7.5-.63-15-1.19-22.5-1.79-7.96-.64-15.91-1.33-23.87-1.95-6.65-.52-13.31-.97-19.96-1.46-7.05-.53-14.1-1.09-21.15-1.61-5.29-.39-10.58-.74-15.87-1.12-7.62-.54-15.25-1.09-22.87-1.62-5.35-.38-10.7-.75-16.05-1.11-7.91-.54-15.82-1.1-23.73-1.62-5.86-.39-11.73-.74-17.59-1.12-8.48-.54-16.96-1.09-25.45-1.63-6.09-.38-12.19-.74-18.28-1.11-8.88-.54-17.77-1.09-26.65-1.63-6.38-.38-12.76-.74-19.14-1.11-7.29-.43-14.58-.86-21.87-1.28-6.61-.38-13.22-.75-19.82-1.12-7.8-.43-15.61-.87-23.42-1.29-7.07-.38-14.13-.74-21.2-1.11-8.15-.43-16.3-.86-24.45-1.28-5.19-.27-10.37-.52-15.56-.77-8.84-.43-17.67-.95-26.51-1.27-9.58-.35-19.15-1.14-28.74-1.12-13.13,.03-24.44,4.66-34.06,13.54-1.21,1.12-2.56,2.08-3.86,3.13-.37-.35-.16-.63-.05-.92C34.29,13.31,45.44,4.08,61.65,.86c5.87-1.17,11.77-.97,17.71-.43,5,.46,10.03,.52,15.04,.77,8.49,.43,16.98,.86,25.47,1.3,7.24,.37,14.48,.72,21.71,1.11,7.52,.41,15.04,.86,22.56,1.29,6.61,.37,13.22,.71,19.82,1.11,8.54,.52,17.08,1.07,25.62,1.62,5.81,.37,11.61,.74,17.42,1.11,2.9,.19,5.81,.31,8.7,.63,3.43,.37,6.55-.24,9.41-2.24,2.1-1.47,4.25-2.86,6.41-4.23,1.52-.96,3.2-1.37,5.03-1.31,5.08,.16,10.12,.75,15.19,1.09,4.38,.3,8.76,.6,13.14,.93,7.11,.53,14.21,1.08,21.32,1.62,6.37,.49,12.74,.96,19.1,1.47,6.54,.52,13.07,1.07,19.6,1.6,4.77,.39,9.55,.76,14.32,1.13,6.88,.54,13.75,1.09,20.63,1.62,4.32,.33,8.64,.57,12.95,1.09,2.61,.31,4.93,1.32,7.12,2.65,2.09,1.28,4.11,2.66,6.11,4.08,3.22,2.29,6.65,3.71,10.7,3.94,7.17,.4,14.32,1.11,21.48,1.73,7.27,.63,14.53,1.32,21.8,1.95,6.98,.61,13.97,1.15,20.95,1.81,7.6,.71,15.2,1.5,22.79,2.29,6.68,.69,13.37,1.37,20.04,2.16,6.78,.81,13.54,1.76,20.32,2.62,3.89,.49,7.75,1.09,11.5,2.36,6.16,2.1,10.17,6.19,12.2,12.36,4.66,14.15,9.29,28.31,14.11,42.41,2.79,8.15,5.36,16.38,8.11,24.54,.67,1.98,.64,1.98-1.41,2-49.74,.36-99.48,.3-149.23,.32-67.39,.03-134.78,.07-202.17,.11-2.85,0-5.7,0-8.55,0-.06-.16-.11-.32-.17-.48Z" style="fill:#3f3b3a;"/><path d="M.19,185.59c.83,1.65,1.65,3.3,2.48,4.95,3.63,7.2,9.87,10.39,17.54,11.32,2.66,.32,5.35,.29,8.04,.28,22.55-.07,45.11-.18,67.66,.08,1.37,.02,1.83-.23,1.8-1.72-.06-3.36-.31-6.72-.22-10.09,.22-8.9,3.03-16.97,7.78-24.36,6.85-10.66,16.4-17.89,28.86-20.55,16.06-3.42,29.96,1.17,41.42,12.81,7.75,7.87,12.09,17.46,13.33,28.49,1.89,16.87-2.65,31.52-14.84,43.55-7.22,7.12-16.12,10.89-25.98,12.57-12.58,2.14-24.97,1.26-37.08-2.75-9.98-3.31-18.54-8.67-24.25-17.82-.62-.99-1.41-.97-2.32-.97-17.19,0-34.37,.17-51.56-.1-9.77-.15-18.53-3.42-25.33-10.81-4.31-4.69-6.25-10.46-7.17-16.64-.4-2.71-.45-5.44-.15-8.26Zm134.23,27.59c.11,.15,.21,.3,.32,.44,.8,.26,1.59,.55,2.39,.78,8.3,2.35,15.55,.69,21.42-5.82,4.24-4.71,6.3-10.28,6.38-16.64,.15-10.67-6.98-20.26-17.03-22.81-6.19-1.57-11.53,.53-16.74,3.79,10.67,1.67,18.7,6.53,19.84,18.03,1.19,11.94-5.1,19.15-16.59,22.23Zm-11.85,24.99c-.78-1.14-.07-2.32-1.45-2.77-6.06-1.96-10.36-6.24-14.27-10.99-2.96-3.6-2.93-3.62-7.51-2.97-.51,.07-1,.25-1.5,.3-1.07,.09-.97,.53-.38,1.15,1.44,1.54,2.82,3.15,4.34,4.61,5.72,5.5,12.66,8.65,20.78,10.68Z" style="fill:#3e3a39;"/><path d="M167.64,63.02c-.24-11.3-.51-22.59-.4-33.89,.02-1.61,.52-1.95,2.03-1.94,6.63,.03,13.2,.73,19.78,1.33,4.48,.41,9,.49,13.49,.76,6.6,.4,13.2,.86,19.8,1.28,5.92,.38,11.84,.72,17.75,1.12,7.79,.52,15.6,.81,23.37,1.59,3.46,.34,6.95,.34,10.43,.38,1.14,.01,1.48,.3,1.67,1.48,.66,4.18-.06,8.31-.2,12.46-.03,1.08-.18,2.16-.2,3.24-.14,11.47-.25,22.94-.39,34.4-.02,1.37-.24,2.73-.22,4.1,.02,1.14-.51,1.27-1.46,1.26-11.13-.06-22.27-.09-33.4-.18-9.35-.07-18.71,.12-28.03,1.09-6.12,.64-12.16,1.74-18.24,2.58-8.11,1.13-15.72,4-23.54,6.16-1.26,.35-1.64,.28-1.74-1.13-.35-5.01-.48-10.02-.51-15.04-.05-7.02-.01-14.04-.01-21.06Z" style="fill:#2ab0e7;"/><path d="M54.39,23.55c-.72,5.64-2.06,11.03-3.11,16.47-2.03,10.48-4.1,20.95-6.04,31.44-2.1,11.39-4.12,22.8-6.07,34.22-1.71,9.96-3.25,19.96-4.94,29.92-.59,3.47-.94,6.98-1.97,10.37-1.3,4.27-3.9,7.4-8.04,9.19-3.62,1.57-7.31,2.86-11.33,2.87-1.33,0-2.61-.21-3.87-.55-4.47-1.21-5.17-2.31-4.4-6.85,2.82-16.74,5.59-33.5,8.49-50.23,2.53-14.6,5.11-29.2,7.88-43.75,3.01-15.84,12.42-26.22,27.63-31.42,1.86-.63,3.7-1.34,5.79-1.68Z" style="fill:#2bb1e7;"/><path d="M3.84,182.78c4.39-.45,8.54-1.32,12.49-2.97,3.88-1.63,7.42-3.87,11.04-6.53-.45,3.83-.65,7.38-1.78,10.77-.81,2.44-2.94,3.34-5.13,4.06-5.33,1.75-10.03-.05-14.51-2.76-.9-.54-1.69-1.33-2.11-2.57Z" style="fill:#403c3b;"/></g><text transform="translate(189.3 211.22)" style="fill:#fff; font-family:SofachromeRg-Italic, Sofachrome; font-size:21.98px;"><tspan x="0" y="0">the p</tspan><tspan x="107.41" y="0" style="letter-spacing:-.05em;">r</tspan><tspan x="134.07" y="0" style="letter-spacing:-.03em;">o</tspan><tspan x="160.22" y="0">’s experience</tspan></text></g></svg>